<?xml version="1.0" encoding="utf-8"?>
<!-- Generator: Adobe Illustrator 23.1.0, SVG Export Plug-In . SVG Version: 6.00 Build 0)  -->
<svg version="1.1" xmlns="http://www.w3.org/2000/svg" xmlns:xlink="http://www.w3.org/1999/xlink" x="0px" y="0px"
	 viewBox="0 0 750 500" style="enable-background:new 0 0 750 500;" xml:space="preserve">
<style type="text/css">
	.st0{fill:url(#SVGID_1_);}
	.st1{clip-path:url(#SVGID_3_);fill:url(#SVGID_4_);}
	.st2{clip-path:url(#SVGID_3_);fill:url(#SVGID_5_);}
	.st3{clip-path:url(#SVGID_3_);fill:url(#SVGID_6_);}
	.st4{opacity:0.2;clip-path:url(#SVGID_3_);fill:#3D5539;}
	.st5{clip-path:url(#SVGID_3_);fill:url(#SVGID_7_);}
	.st6{clip-path:url(#SVGID_3_);fill:#3D5539;}
	.st7{clip-path:url(#SVGID_3_);fill:#ECF0F1;}
	.st8{opacity:0.2;clip-path:url(#SVGID_3_);fill:#ECF0F1;}
	.st9{clip-path:url(#SVGID_3_);fill:url(#SVGID_8_);}
	.st10{clip-path:url(#SVGID_3_);fill:url(#SVGID_9_);}
	.st11{clip-path:url(#SVGID_3_);fill:url(#SVGID_10_);}
	.st12{clip-path:url(#SVGID_3_);fill:url(#SVGID_11_);}
	.st13{clip-path:url(#SVGID_3_);fill:url(#SVGID_12_);}
	.st14{clip-path:url(#SVGID_3_);fill:url(#SVGID_13_);}
	.st15{clip-path:url(#SVGID_3_);fill:url(#SVGID_14_);}
	.st16{clip-path:url(#SVGID_3_);fill:url(#SVGID_15_);}
</style>
<g id="BACKGROUND">
	<radialGradient id="SVGID_1_" cx="394.4992" cy="155.0045" r="314.0184" gradientUnits="userSpaceOnUse">
		<stop  offset="0" style="stop-color:#BEDEF4"/>
		<stop  offset="1" style="stop-color:#AED6F1"/>
	</radialGradient>
	<rect class="st0" width="750" height="500"/>
</g>
<g id="OBJECTS">
	<g>
		<defs>
			<rect id="SVGID_2_" width="750" height="500"/>
		</defs>
		<clipPath id="SVGID_3_">
			<use xlink:href="#SVGID_2_"  style="overflow:visible;"/>
		</clipPath>
		<linearGradient id="SVGID_4_" gradientUnits="userSpaceOnUse" x1="268.3522" y1="32.5615" x2="268.3522" y2="308.9298">
			<stop  offset="0" style="stop-color:#88C3EB"/>
			<stop  offset="1" style="stop-color:#AED6F1"/>
		</linearGradient>
		<path class="st1" d="M0,259.1c0,0,147.4-111,179.4-132s49.6-28.8,79-5c30.4,24.6,81.2,68.7,94.5,71c13.2,2.3,25.4-16,41.5-16
			c16.1,0,142.4,72.9,142.4,72.9v99.1H0V259.1z"/>
		<linearGradient id="SVGID_5_" gradientUnits="userSpaceOnUse" x1="450.86" y1="142.1508" x2="450.86" y2="316.2316">
			<stop  offset="0" style="stop-color:#76B3DB"/>
			<stop  offset="1" style="stop-color:#88C3EB"/>
		</linearGradient>
		<path class="st2" d="M127.4,273.1c0,0,60-25.1,103-23.1s113.8,28.1,156.9,23.1s197.1-79,248.1-72s117,38.9,128,41.9
			c11,3.1,11,7,11,7v99.1h-647V273.1z"/>
		<linearGradient id="SVGID_6_" gradientUnits="userSpaceOnUse" x1="375" y1="503.0551" x2="375" y2="348.4769">
			<stop  offset="0" style="stop-color:#709951"/>
			<stop  offset="1" style="stop-color:#7BA859"/>
		</linearGradient>
		<rect y="349.1" class="st3" width="750" height="150.9"/>
		<path class="st4" d="M610.4,359.9c0,0-47.5,6.7-78,3.9c-30.5-2.9-53-3.2-60,0.7c-7,3.9-57,11.9-57,11.9s42,1,65-4s109.5,5,121,2
			S610.4,359.9,610.4,359.9z"/>
		<path class="st4" d="M170,393.4c0,0,14-8.3,19.3-5.3c5.3,3,12,8.3,24.7,2.3c12.7-6,20-7.6,27.7-3c7.7,4.7,13.3,8.7,23,6
			c9.7-2.7,13,1,31,3s55.4,3,52.7,5c-2.7,2-59,7-70,3.3c-11-3.7-43.7-5.3-59-3.3s-49.3,0-49.3,0V393.4z"/>
		<path class="st4" d="M604.8,384.7c0,0-28,10.5-74,10.7c-46,0.2-53.7,3.2-86.9,6.2s-44.6-2.5-64.6,2.5s-42.3,4-38.2,8.5
			c4.2,4.5,83-5,102.8-2c19.9,3,71.4,3.5,98.9,3.2c27.5-0.2,60.1-4.2,60.1-4.2L604.8,384.7z"/>
		<path class="st4" d="M536.7,349.1c0,0-88.9,5-130.1,11.5s-115.4-9.5-147.3,0c-31.9,9.5-105.9,14-131.9,12.2c-26-1.8-62,0.4-62,0.4
			L0,384.7v-35.6H536.7z"/>
		<path class="st4" d="M178.6,441.1c0,0,65.2,6,85.1,1c19.9-5,29.4-4,37,0.4c7.6,4.4,25.7-4.3,42.6-1.1c16.9,3.1,33.6,5,42.2,0.4
			c8.6-4.6,21.6-4.7,26.2-0.7c4.6,4,32.9-5.5,41-1.1c8.1,4.4,17-4.4,21-3.5c4,0.9,98.5,2.7,98.5,2.7l-15,13.8c0,0-73.7-1.8-90.2-4.8
			c-16.6-3.1-26.1,1.7-43.8,2.2c-17.7,0.5-38.8-1.5-51.7,2.4c-12.9,3.8-32,11.8-42,6.3c-10-5.5-21-7.2-31.4-2.4
			c-10.4,4.8-24,2.1-29.6-2.2s-14.3,6.4-23.9,3.1c-9.6-3.2-71.1-4.3-71.1-4.3L178.6,441.1z"/>
		<linearGradient id="SVGID_7_" gradientUnits="userSpaceOnUse" x1="367.36" y1="244.1457" x2="367.36" y2="327.7388">
			<stop  offset="0" style="stop-color:#709951"/>
			<stop  offset="1" style="stop-color:#7BA859"/>
		</linearGradient>
		<path class="st5" d="M-41.6,288.1c0,0,100-47,127-45s168.2,71,241.1,69s108.9-22,138.9-19s102.5,35,154,27s157-51,157-51v80.1
			h-818V288.1z"/>
		<path class="st6" d="M15,326.7c0,0-4.7-19.7-9-15.2c-4.3,4.5-6,9.8-6,9.8v27.8h15V326.7z"/>
		<path class="st6" d="M468.4,349.1c0,0,6.8-0.9,10.8-6.3c4-5.3,5.2-11,8.7-9.3c3.5,1.7,3.2,9.3,5.7,8.3s4.2-9.3,7.2-9.7
			c3-0.3,3.5,9.3,7.2,8.5c3.7-0.8,7.2-14.5,11.5-13.6c4.3,0.8,5.2,16,10.2,13s7-22.8,11-23.2c4-0.3,6.5,27.8,10.5,24.8
			s6.7-7.4,9.3-8.7c2.7-1.3,4.5,11.2,7.8,8.9c3.3-2.3,4.8-15.8,8.5-15.7c3.7,0.2,6.2,17,9.5,15.7c3.3-1.3,4.8-21.7,10.5-22.5
			c5.7-0.8,7.2,22.3,13,23c5.8,0.7,39.2-11.2,44.2-17.8c5-6.7,10.5-10,14-1s10-19,21-16.5s0,42.1,0,42.1H468.4z"/>
		<path class="st6" d="M70.9,337.1c0,0,5.5-25.5,10.3-25.5s7,22.5,10.3,22.5s2.7-7.8,8.8-7.3c6,0.6,6,17,11,15.8s9-26.3,13.3-27.8
			s7.7,26.4,13.7,27.8s17.3,0.8,20,0s12.3-23.1,19.3-22.8s8.5,22,12,22c3.5,0,5-13.8,8.5-14.3s3.3,13.5,9.5,14.8s7.3-11.5,10.3-11.3
			s3.5,10.5,8.3,11.3s10.8-14,15.3-16s6,16.5,12.3,15.5c6.2-1,11.2-25.8,15-26.3c3.8-0.5,7.3,26,11,24.3s4.5-7.8,7.3-7.5
			s4,10.8,8.5,9.8s5.3-8.5,9.3-8s3.8,9.9,7.8,9.4c4-0.4,6.8-5.9,8.8-6.4s3.9,5.6,7.8,6.4s6.8-4.4,10-2.7c3.2,1.8,14.6,8.3,14.6,8.3
			H70.9V337.1z"/>
		<path class="st7" d="M198.1,63.8c-1.1-5.8-6.2-10.2-12.3-10.2c-2.1,0-4.1,0.5-5.8,1.5c-5-9-14.6-15-25.6-15
			c-10.3,0-19.4,5.3-24.6,13.4c-2.7-1.8-5.9-2.8-9.4-2.8c-8.1,0-14.8,5.6-16.6,13.2H198.1z"/>
		<path class="st7" d="M377.1,135.8c-1.1-5.8-6.2-10.2-12.3-10.2c-2.1,0-4.1,0.5-5.8,1.5c-5-9-14.6-15-25.6-15
			c-10.3,0-19.4,5.3-24.6,13.4c-2.7-1.8-5.9-2.8-9.4-2.8c-8.1,0-14.8,5.6-16.6,13.2H377.1z"/>
		<path class="st7" d="M215.3,193.1c-3.2-11.3-13.6-19.7-26-19.7c-5.6,0-10.8,1.7-15.1,4.6c-7.8-11.6-21.1-19.3-36.1-19.3
			c-16.2,0-30.4,8.9-37.8,22.1c-2.8-2.2-6.4-3.5-10.3-3.5c-7.4,0-13.7,4.8-15.9,11.4c-1.6-2.3-4.3-3.9-7.4-3.9c-4.7,0-8.6,3.6-9,8.3
			H215.3z"/>
		<path class="st7" d="M630.5,71.7c-1-6.8-6.8-12-13.8-12c-3,0-5.7,0.9-8,2.5c-6-9.1-16.3-15.2-28-15.2c-11.8,0-22.1,6.1-28.1,15.2
			c-3.2-3.4-7.7-5.6-12.8-5.6c-7.1,0-13.2,4.2-15.9,10.3c-2-2.4-5-4-8.4-4c-5.2,0-9.6,3.7-10.6,8.7H630.5z"/>
		<path class="st7" d="M732.8,157.1c-0.8-8.1-7.6-14.5-15.9-14.5c-4.3,0-8.1,1.7-11,4.4c-7.2-22.3-28-38.4-52.7-38.4
			c-20.8,0-38.9,11.5-48.3,28.4c-11.2-11.1-26.6-17.9-43.6-17.9c-21.7,0-40.9,11.2-51.9,28.1c-3.8-2.9-8.6-4.6-13.8-4.6
			c-9.7,0-17.9,6-21.2,14.5H732.8z"/>
		<circle class="st8" cx="50.5" cy="73.2" r="1.9"/>
		<circle class="st8" cx="111.9" cy="119.1" r="1.5"/>
		<circle class="st8" cx="585.4" cy="286.1" r="1.5"/>
		<path class="st8" d="M209.9,77.6c0,1.2-1,2.2-2.2,2.2c-1.2,0-2.2-1-2.2-2.2s1-2.2,2.2-2.2C208.9,75.4,209.9,76.4,209.9,77.6z"/>
		<path class="st8" d="M283.4,84.7c0,1.3-1,2.3-2.3,2.3c-1.3,0-2.3-1-2.3-2.3c0-1.3,1-2.3,2.3-2.3C282.3,82.4,283.4,83.4,283.4,84.7
			z"/>
		<path class="st4" d="M273,371.3c0,1.3-1,2.3-2.3,2.3c-1.3,0-2.3-1-2.3-2.3s1-2.3,2.3-2.3C272,369,273,370.1,273,371.3z"/>
		<path class="st4" d="M460.8,479.1c0,1.3-1,2.3-2.3,2.3c-1.3,0-2.3-1-2.3-2.3s1-2.3,2.3-2.3C459.7,476.7,460.8,477.8,460.8,479.1z"
			/>
		<path class="st4" d="M189.9,413.8c0,1.3-1,2.3-2.3,2.3c-1.3,0-2.3-1-2.3-2.3c0-1.3,1-2.3,2.3-2.3
			C188.8,411.5,189.9,412.5,189.9,413.8z"/>
		<path class="st4" d="M551.4,426.9c0,1.3-1,2.3-2.3,2.3c-1.3,0-2.3-1-2.3-2.3c0-1.3,1-2.3,2.3-2.3
			C550.3,424.6,551.4,425.6,551.4,426.9z"/>
		<path class="st4" d="M239.7,476.7c0,1.3-1,2.3-2.3,2.3c-1.3,0-2.3-1-2.3-2.3c0-1.3,1-2.3,2.3-2.3
			C238.6,474.4,239.7,475.4,239.7,476.7z"/>
		<circle class="st8" cx="391.7" cy="45.1" r="2"/>
		<path class="st8" d="M459.8,108.7c0,1.4-1.1,2.5-2.5,2.5s-2.5-1.1-2.5-2.5c0-1.4,1.1-2.5,2.5-2.5S459.8,107.4,459.8,108.7z"/>
		<path class="st8" d="M258.3,218.1c0,1.4-1.1,2.5-2.5,2.5s-2.5-1.1-2.5-2.5c0-1.4,1.1-2.5,2.5-2.5S258.3,216.7,258.3,218.1z"/>
		<path class="st8" d="M491.4,199.9c0,1-0.8,1.8-1.8,1.8c-1,0-1.8-0.8-1.8-1.8c0-1,0.8-1.8,1.8-1.8
			C490.5,198.1,491.4,198.9,491.4,199.9z"/>
		<path class="st4" d="M311.4,379.6c0,1-0.8,1.8-1.8,1.8c-1,0-1.8-0.8-1.8-1.8c0-1,0.8-1.8,1.8-1.8
			C310.5,377.8,311.4,378.6,311.4,379.6z"/>
		<path class="st4" d="M191.2,377.8c0,1-0.8,1.8-1.8,1.8c-1,0-1.8-0.8-1.8-1.8c0-1,0.8-1.8,1.8-1.8
			C190.4,376,191.2,376.8,191.2,377.8z"/>
		<path class="st4" d="M202.9,426.9c0,1-0.8,1.8-1.8,1.8c-1,0-1.8-0.8-1.8-1.8c0-1,0.8-1.8,1.8-1.8
			C202,425.1,202.9,425.9,202.9,426.9z"/>
		<path class="st4" d="M270.2,487.2c0,1-0.8,1.8-1.8,1.8c-1,0-1.8-0.8-1.8-1.8c0-1,0.8-1.8,1.8-1.8
			C269.4,485.4,270.2,486.2,270.2,487.2z"/>
		<path class="st4" d="M574.1,355.8c0,1-0.8,1.8-1.8,1.8c-1,0-1.8-0.8-1.8-1.8c0-1,0.8-1.8,1.8-1.8
			C573.3,354,574.1,354.8,574.1,355.8z"/>
		<path class="st4" d="M514.8,429.2c0,1-0.8,1.8-1.8,1.8c-1,0-1.8-0.8-1.8-1.8c0-1,0.8-1.8,1.8-1.8
			C514,427.4,514.8,428.2,514.8,429.2z"/>
		<path class="st4" d="M498.4,469.9c0,1-0.8,1.8-1.8,1.8c-1,0-1.8-0.8-1.8-1.8c0-1,0.8-1.8,1.8-1.8
			C497.5,468.1,498.4,468.9,498.4,469.9z"/>
		<path class="st4" d="M500.2,381.5c0,1-0.8,1.8-1.8,1.8c-1,0-1.8-0.8-1.8-1.8s0.8-1.8,1.8-1.8C499.4,379.6,500.2,380.5,500.2,381.5
			z"/>
		<path class="st4" d="M550.9,360.6c0,1-0.8,1.8-1.8,1.8c-1,0-1.8-0.8-1.8-1.8s0.8-1.8,1.8-1.8C550,358.8,550.9,359.6,550.9,360.6z"
			/>
		<circle class="st8" cx="569.7" cy="98.7" r="2"/>
		<circle class="st8" cx="84.4" cy="280.1" r="2"/>
		<circle class="st8" cx="681.4" cy="248" r="2"/>
		<circle class="st8" cx="718" cy="73.4" r="1.7"/>
		<path class="st8" d="M681.5,177.9c0,0.6-0.5,1.2-1.2,1.2s-1.2-0.5-1.2-1.2c0-0.6,0.5-1.2,1.2-1.2S681.5,177.2,681.5,177.9z"/>
		<linearGradient id="SVGID_8_" gradientUnits="userSpaceOnUse" x1="34.9434" y1="399.0569" x2="34.9434" y2="286.0531">
			<stop  offset="0" style="stop-color:#3D5539"/>
			<stop  offset="1" style="stop-color:#40663A"/>
		</linearGradient>
		<path class="st9" d="M-17,389.7c0,0,55.8-147.2,63.3-154.2s40.5,164,40.5,164L-17,389.7z"/>
		<linearGradient id="SVGID_9_" gradientUnits="userSpaceOnUse" x1="711.8184" y1="370.1395" x2="711.8184" y2="234.3155">
			<stop  offset="0" style="stop-color:#3D5539"/>
			<stop  offset="1" style="stop-color:#40663A"/>
		</linearGradient>
		<path class="st10" d="M658.4,384.1c0,0,49.1-161.6,66.4-161.6c19.9,0,40.5,164,40.5,164L658.4,384.1z"/>
		<linearGradient id="SVGID_10_" gradientUnits="userSpaceOnUse" x1="625.7349" y1="395.6382" x2="625.7349" y2="293.2291">
			<stop  offset="0" style="stop-color:#3D5539"/>
			<stop  offset="1" style="stop-color:#40663A"/>
		</linearGradient>
		<path class="st11" d="M572.3,433.6c0,0,49.1-161.6,66.4-161.6c19.9,0,40.5,164,40.5,164L572.3,433.6z"/>
		<linearGradient id="SVGID_11_" gradientUnits="userSpaceOnUse" x1="138.1098" y1="430.1365" x2="138.1098" y2="330.8306">
			<stop  offset="0" style="stop-color:#3D5539"/>
			<stop  offset="1" style="stop-color:#40663A"/>
		</linearGradient>
		<path class="st12" d="M86.9,424.6c0,0,52.5-121.5,61.8-121.5c9.3,0,40.7,166.9,40.7,166.9L86.9,424.6z"/>
		<linearGradient id="SVGID_12_" gradientUnits="userSpaceOnUse" x1="161.7216" y1="354.4465" x2="58.8769" y2="499.0113">
			<stop  offset="0" style="stop-color:#2E402B"/>
			<stop  offset="1" style="stop-color:#3D5539"/>
		</linearGradient>
		<path class="st13" d="M190,454.3c-0.2,0-0.4,0-0.6,0c0,0,0,0,0,0c0-17.3-14-31.3-31.3-31.3c-4.4,0-8.6,0.9-12.4,2.6
			c0.1-0.8,0.1-1.7,0.1-2.6c0-14.9-12.1-27-27-27c-6.4,0-12.2,2.2-16.9,5.9c-6.6-17-23.1-29.1-42.5-29.1c-12.5,0-23.8,5-32,13.1
			c-5.4-7.8-14.4-12.9-24.7-12.9c-16.6,0-30,13.4-30,30v115H190c17.6,0,31.9-14.3,31.9-31.9S207.6,454.3,190,454.3z"/>
		<linearGradient id="SVGID_13_" gradientUnits="userSpaceOnUse" x1="606.963" y1="369.0268" x2="696.9583" y2="514.5195">
			<stop  offset="0" style="stop-color:#2E402B"/>
			<stop  offset="1" style="stop-color:#3D5539"/>
		</linearGradient>
		<path class="st14" d="M750,366c-7.3,0-14,2.6-19.3,6.9c-9-7.7-20.7-12.3-33.5-12.3c-20.7,0-38.6,12.1-46.9,29.7
			c-3.6-1.5-7.5-2.3-11.6-2.3c-12.6,0-23.3,7.6-28,18.4c-0.8,0-1.7-0.1-2.5-0.1c-23.4,0-42.8,16.9-46.7,39.2c-1.3-0.1-2.7-0.2-4-0.2
			c-20.1,0-36.4,16.3-36.4,36.4c0,20.1,16.3,36.4,36.4,36.4h223V396.5C780.5,379.7,766.9,366,750,366z"/>
		<path class="st6" d="M481.1,344.6c0,0-43.8,2.3-71.3,2.8s-67.8-2.8-67.8-2.8l-0.9,4.6h140V344.6z"/>
		<linearGradient id="SVGID_14_" gradientUnits="userSpaceOnUse" x1="678.5848" y1="399.6727" x2="756.8091" y2="528.6372">
			<stop  offset="0" style="stop-color:#2E402B"/>
			<stop  offset="1" style="stop-color:#3D5539"/>
		</linearGradient>
		<path class="st15" d="M626.7,476.3c0.2,0,0.4,0,0.6,0c0,0,0,0,0,0c0-17.3,14-31.3,31.3-31.3c4.4,0,8.6,0.9,12.4,2.6
			c-0.1-0.8-0.1-1.7-0.1-2.6c0-14.9,12.1-27,27-27c6.4,0,12.2,2.2,16.9,5.9c6.6-17,23.1-29.1,42.5-29.1c12.5,0,23.8,5,32,13.1
			c5.4-7.8,14.4-12.9,24.7-12.9c16.6,0,30,13.4,30,30v115H626.7c-17.6,0-31.9-14.3-31.9-31.9C594.9,490.6,609.1,476.3,626.7,476.3z"
			/>
		<linearGradient id="SVGID_15_" gradientUnits="userSpaceOnUse" x1="119.7326" y1="411.989" x2="49.5213" y2="546.1083">
			<stop  offset="0" style="stop-color:#2E402B"/>
			<stop  offset="1" style="stop-color:#3D5539"/>
		</linearGradient>
		<path class="st16" d="M8.9,419c5.7,0,10.9,2,15,5.4c7-6,16.1-9.5,26.1-9.5c16.1,0,30,9.4,36.5,23.1c2.8-1.1,5.8-1.8,9-1.8
			c9.8,0,18.1,5.9,21.8,14.3c0.6,0,1.3-0.1,2-0.1c18.2,0,33.3,13.2,36.3,30.5c1-0.1,2.1-0.2,3.1-0.2c15.6,0,28.3,12.7,28.3,28.3
			s-12.7,28.3-28.3,28.3H-14.9v-94.5C-14.9,429.7-4.3,419,8.9,419z"/>
		<circle class="st8" cx="247.4" cy="411.6" r="1.5"/>
		<circle class="st8" cx="556.9" cy="380.6" r="1.5"/>
		<circle class="st8" cx="153.5" cy="374.6" r="1.5"/>
		<circle class="st8" cx="466.9" cy="269.6" r="1.5"/>
		<circle class="st8" cx="715.9" cy="337.1" r="1.5"/>
		<circle class="st8" cx="606.4" cy="453.9" r="1.5"/>
		<circle class="st8" cx="62.5" cy="446.6" r="2"/>
	</g>
</g>
<g id="DESIGNED_BY_FREEPIK">
</g>
</svg>
